{"title":"Harry.Potter.and.the.Deathly.Hallows.Part.1.2010.BRRIP.720P.H264","uid":6290119,"size":3041462929,"categoryP":"video","categoryS":"hd___movies","magnet":"?xt=urn:btih:a292d49683bc372f74e4ab8af1f923bb1b00ada2&amp;dn=Harry.Potter.and.the.Deathly.Hallows.Part.1.2010.BRRIP.720P.H264&amp;tr=udp%3A%2F%2Ftracker.openbittorrent.com%3A80&amp;tr=udp%3A%2F%2Fopen.demonii.com%3A1337&amp;tr=udp%3A%2F%2Ftracker.coppersurfer.tk%3A6969&amp;tr=udp%3A%2F%2Fexodus.desync.com%3A6969","seeders":0,"leechers":1,"uploader":"blowley","files":4,"time":1301770847,"description":"Title                            : Harry Potter and the Deathly Hallows: Part 1\nYear                             : 2010\nGenre                            : Adventure | Family | Fantasy\niMDB URL                         : http://www.imdb.com/title/tt0926084/\n\nComplete name                    : Harry.Potter.and.the.Deathly.Hallows.Part.1.2010.BRRIP.720P.H264-ZEKTORM.mp4\nFormat                           : MPEG-4\nFormat profile                   : Base Media\nCodec ID                         : isom\nFile size                        : 2.83 GiB\nDuration                         : 2h 25mn\nOverall bit rate                 : 2778 Kbps\nSubtitles                        : English (Format: srt)\n\nVideo\nID                               : 1\nFormat                           : AVC\nFormat/Info                      : Advanced Video Codec\nFormat profile                   : &lt;a class=&quot;__cf_email__&quot; href=&quot;/cdn-cgi/l/email-protection&quot; data-cfemail=&quot;7b33121c133b374f554b&quot;&gt;[email&amp;#160;protected]&lt;/a&gt;&lt;script cf-hash='f9e31' type=&quot;text/javascript&quot;&gt;\n/* &lt;![CDATA[ */!function(){try{var t=&quot;currentScript&quot;in document?document.currentScript:function(){for(var t=document.getElementsByTagName(&quot;script&quot;),e=t.length;e--;)if(t[e].getAttribute(&quot;cf-hash&quot;))return t[e]}();if(t&amp;&amp;t.previousSibling){var e,r,n,i,c=t.previousSibling,a=c.getAttribute(&quot;data-cfemail&quot;);if(a){for(e=&quot;&quot;,r=parseInt(a.substr(0,2),16),n=2;a.length-n;n+=2)i=parseInt(a.substr(n,2),16)^r,e+=String.fromCharCode(i);e=document.createTextNode(e),c.parentNode.replaceChild(e,c)}}}catch(u){}}();/* ]]&gt; */&lt;/script&gt;\nFormat settings, CABAC           : Yes\nFormat settings, ReFrames        : 12 frames\nCodec ID                         : avc1\nCodec ID/Info                    : Advanced Video Coding\nDuration                         : 2h 25mn\nBit rate mode                    : Variable\nBit rate                         : 2558 Kbps\nWidth                            : 1280 pixels\nHeight                           : 528 pixels\nDisplay aspect ratio             : 2.424\nFrame rate mode                  : Constant\nFrame rate                       : 23.976 fps\nResolution                       : 24 bits\nColorimetry                      : 4:2:0\nScan type                        : Progressive\nBits/(Pixel*Frame)               : 0.158\nStream size                      : 2.61 GiB (92%)\nTitle                            : Video\nWriting library                  : x264\n\nAudio\nID                               : 2\nFormat                           : AAC\nFormat/Info                      : Advanced Audio Codec\nFormat version                   : Version 4\nFormat profile                   : LC\nFormat settings, SBR             : Yes\nFormat settings, PS              : No\nCodec ID                         : 40\nDuration                         : 2h 25mn\nBit rate mode                    : Variable\nBit rate                         : 216 Kbps\nMaximum bit rate                 : 278 Kbps\nChannel(s)                       : 6 channels\nChannel positions                : Front: L C R, Rear: L R, LFE\nSampling rate                    : 48.0 KHz\nResolution                       : 16 bits\nStream size                      : 226 MiB (8%)\nTitle                            : English\nLanguage                         : English\n\n\nScreenshots:\n &lt;a href=&quot;\nhttp://img16.imageshack.us/img16/2352/snaphpdh1.png&quot; rel=&quot;nofollow&quot; target=&quot;_NEW&quot;&gt;\nhttp://img16.imageshack.us/img16/2352/snaphpdh1.png&lt;/a&gt;\n &lt;a href=&quot;\nhttp://img859.imageshack.us/img859/2351/snaphpdh2.png&quot; rel=&quot;nofollow&quot; target=&quot;_NEW&quot;&gt;\nhttp://img859.imageshack.us/img859/2351/snaphpdh2.png&lt;/a&gt;\n &lt;a href=&quot;\nhttp://img822.imageshack.us/img822/8706/snaphpdh3.png&quot; rel=&quot;nofollow&quot; target=&quot;_NEW&quot;&gt;\nhttp://img822.imageshack.us/img822/8706/snaphpdh3.png&lt;/a&gt;\n &lt;a href=&quot;\nhttp://img857.imageshack.us/img857/33/snaphpdh4.png&quot; rel=&quot;nofollow&quot; target=&quot;_NEW&quot;&gt;\nhttp://img857.imageshack.us/img857/33/snaphpdh4.png&lt;/a&gt;\n","torrent":{"xt":"urn:btih:a292d49683bc372f74e4ab8af1f923bb1b00ada2","amp;dn":"Harry.Potter.and.the.Deathly.Hallows.Part.1.2010.BRRIP.720P.H264","amp;tr":["udp%3A%2F%2Ftracker.openbittorrent.com%3A80","udp%3A%2F%2Fopen.demonii.com%3A1337","udp%3A%2F%2Ftracker.coppersurfer.tk%3A6969","udp%3A%2F%2Fexodus.desync.com%3A6969"],"infoHash":"a292d49683bc372f74e4ab8af1f923bb1b00ada2","infoHashBuffer":{"type":"Buffer","data":[162,146,212,150,131,188,55,47,116,228,171,138,241,249,35,187,27,0,173,162]},"announce":[],"urlList":[]}}